<svg xmlns="http://www.w3.org/2000/svg" width="330.639" height="58.997" viewBox="0 0 330.639 58.997">
  <g id="Boardroom_Logo_1" data-name="Boardroom Logo 1" transform="translate(-1 -1.132)">
    <path id="Path_27" data-name="Path 27" d="M8.409,41.556q8.907,5.145,17.811,10.3a.542.542,0,0,0,.628,0q8.732-5.057,17.475-10.093a.577.577,0,0,0,.337-.58q-.013-10.061,0-20.122a.615.615,0,0,0-.368-.609q-8.838-5.093-17.7-10.279C26.573,7.3,26.5,4.476,26.5,1.673c1.488.849,3.074,1.729,4.558,2.585q10.29,5.936,20.582,11.87a.739.739,0,0,1,.435.745q-.016,14.252,0,28.5a.713.713,0,0,1-.409.717q-12.311,7.1-24.608,14.216a2.214,2.214,0,0,0-.355.343.639.639,0,0,1-.281,0c-.174-.128-.272-.266-.406-.343Q13.7,53.193,1.389,46.084A3.561,3.561,0,0,0,1,45.915a.31.31,0,0,1,.032-.148c1.437-.816,2.847-1.594,4.248-2.388C6.329,42.783,7.366,42.164,8.409,41.556Z" transform="translate(0 -0.541)" fill="#fff"/>
    <path id="Path_28" data-name="Path 28" d="M8.414,150.411c-1.048.65-2.085,1.268-3.135,1.864-1.4.795-2.81,1.572-4.248,2.359Q.984,139.963,1,125.247c.571-.348,1.15-.643,1.712-.965,1.752-1,3.5-2.016,5.248-3.024.134-.077.274-.145.459-.242C8.42,130.836,8.42,140.6,8.414,150.411Z" transform="translate(0 -109.437)" fill="#fff"/>
    <path id="Path_30" data-name="Path 30" d="M3786.038,360.507c-.017.037-.033.032-.073-.019-.021-5.416-.021-10.786-.019-16.155,0-.159.01-.319.016-.478a.469.469,0,0,1,.057.008C3786.038,349.4,3786.038,354.933,3786.038,360.507Z" transform="translate(-3454.399 -312.815)" fill="#fff"/>
    <path id="Path_32" data-name="Path 32" d="M3384.705,239.636c-.006.2-.016.358-.016.517,0,5.369,0,10.739-.006,16.147-2.184.039-4.365.039-6.618.039v-.507q0-7.4,0-14.8a6.863,6.863,0,0,0-.521-2.816,3.776,3.776,0,0,0-3.346-2.273,4.737,4.737,0,0,0-3.114.648,4.613,4.613,0,0,0-1.92,2.776,9.272,9.272,0,0,0-.277,2.525q.006,6.963,0,13.926v.506h-6.7v-.509q0-7.312,0-14.625a7.39,7.39,0,0,0-.454-2.834,3.711,3.711,0,0,0-2.961-2.343,5.4,5.4,0,0,0-2.564.142,4.252,4.252,0,0,0-2.754,2.628,6.55,6.55,0,0,0-.477,2.559q0,7.225,0,14.45v.537h-6.68V230.44h6.666v2.644c.13-.155.2-.233.264-.315a7.584,7.584,0,0,1,5.292-2.951,10.655,10.655,0,0,1,4.343.245,7.423,7.423,0,0,1,4.335,3.319c.331-.379.644-.781,1-1.139a8.689,8.689,0,0,1,6.073-2.522,11.1,11.1,0,0,1,4.389.61,8.589,8.589,0,0,1,4.517,3.773,10.645,10.645,0,0,1,1.436,4.636C3384.632,239.027,3384.673,239.312,3384.705,239.636Z" transform="translate(-3053.142 -208.635)" fill="#fff"/>
    <path id="Path_33" data-name="Path 33" d="M2069.285,155.325a12,12,0,0,1-12.248-1.711,13.153,13.153,0,0,1-4.975-8.672,14.191,14.191,0,0,1,1.885-9.976,12.134,12.134,0,0,1,9.13-6.025,10.659,10.659,0,0,1,7.7,1.688,27.8,27.8,0,0,1,2.135,1.828V119.233h6.692v36.261h-6.681v-3.009a9.662,9.662,0,0,1-3.639,2.84m-7.094-6.3c.185.084.366.176.555.25a7.481,7.481,0,0,0,6.646-.327,6.764,6.764,0,0,0,3.522-6.208c.069-3.979-2.3-6.886-6.055-7.407a7.04,7.04,0,0,0-6.378,2.073,7.139,7.139,0,0,0-1.9,5.61A6.952,6.952,0,0,0,2062.191,149.023Z" transform="translate(-1871.746 -107.81)" fill="#fff"/>
    <path id="Path_34" data-name="Path 34" d="M771,141.9V119.309h6.7v13.362a9.2,9.2,0,0,1,3.646-2.827,11.742,11.742,0,0,1,8.764-.223,12.354,12.354,0,0,1,7.727,7.935c1.753,5.094,1.135,9.927-2.3,14.172a11.825,11.825,0,0,1-10.787,4.515,9.672,9.672,0,0,1-6.908-3.517.947.947,0,0,0-.136-.1v2.938H771V141.9m12.686-6.5a6.875,6.875,0,0,0-3.865,1.841,7.839,7.839,0,0,0-1.511,8.538c1.748,4.163,6.734,5.151,10.221,3.229,4.267-2.352,4.322-8.089,2.054-11C788.847,135.787,786.487,135.092,783.684,135.4Z" transform="translate(-702.753 -107.88)" fill="#fff"/>
    <path id="Path_35" data-name="Path 35" d="M1506.192,229.947h1.457v25.914h-6.668v-2.955c-.518.493-.96.966-1.454,1.376a10.177,10.177,0,0,1-5.744,2.259,11.827,11.827,0,0,1-8.89-2.7,13.417,13.417,0,0,1-4.787-8.549,14.21,14.21,0,0,1,1.888-9.975,12.04,12.04,0,0,1,9.084-6.014,10.627,10.627,0,0,1,9.03,2.741c.281.266.534.56.856.9v-2.995h5.229m-19.317,10.79a8.223,8.223,0,0,0,.238,5.058c1.646,4.391,6.764,5.477,10.337,3.494a6.745,6.745,0,0,0,3.509-6.215c.061-3.988-2.321-6.869-6.122-7.4A6.968,6.968,0,0,0,1486.874,240.737Z" transform="translate(-1349.741 -208.166)" fill="#fff"/>
    <path id="Path_36" data-name="Path 36" d="M1153.087,236.307c2.523,5.11,2.353,10.064-.913,14.74a12.892,12.892,0,0,1-8.99,5.448,13.433,13.433,0,0,1-9.855-2.145,13.127,13.127,0,0,1-5.856-9.581,13.338,13.338,0,0,1,3.155-10.789,13.105,13.105,0,0,1,8.471-4.569,13.686,13.686,0,0,1,10,2.41,13.141,13.141,0,0,1,3.984,4.486M1138.2,249.586a7.31,7.31,0,0,0,6.318-.322,6.6,6.6,0,0,0,3.529-5.481,7.084,7.084,0,0,0-11.743-6.189C1132.669,240.827,1133.432,247.562,1138.2,249.586Z" transform="translate(-1027.976 -208.236)" fill="#fff"/>
    <path id="Path_37" data-name="Path 37" d="M2982.219,253.026a13.609,13.609,0,0,1-4.328-11.364,13.372,13.372,0,0,1,9.674-11.882,13.7,13.7,0,1,1-5.347,23.246m16.316-11.1c-.016-.086-.034-.171-.047-.257a7,7,0,0,0-10.582-4.941,7.16,7.16,0,1,0,9.531,10.236A7.372,7.372,0,0,0,2998.535,241.928Z" transform="translate(-2716.874 -208.166)" fill="#fff"/>
    <path id="Path_38" data-name="Path 38" d="M2643.255,255.927a13.747,13.747,0,0,1-12.539-1.818,13.041,13.041,0,0,1-5.511-9.144,13.375,13.375,0,0,1,2.043-9.544,13.1,13.1,0,0,1,9.537-6.013,13.425,13.425,0,0,1,10.865,3.065,13.156,13.156,0,0,1,4.731,8.9,13.562,13.562,0,0,1-9.126,14.558m-4.21-5.82a6.707,6.707,0,0,0,4.578-1.86,7.122,7.122,0,0,0,2.031-6.717,6.985,6.985,0,0,0-10.391-4.83,6.733,6.733,0,0,0-3.508,6.469A6.853,6.853,0,0,0,2639.045,250.108Z" transform="translate(-2394.88 -208.226)" fill="#fff"/>
    <path id="Path_39" data-name="Path 39" d="M1875.676,234.705a8.37,8.37,0,0,1,6.461-2.6V239.5c-.622,0-1.246-.051-1.86.009a6.112,6.112,0,0,0-5.5,3.731,6.609,6.609,0,0,0-.5,2.637q0,6.134,0,12.268v.361h-6.672V232.629h6.659V236.8C1874.73,236.108,1875.193,235.418,1875.676,234.705Z" transform="translate(-1703.593 -210.813)" fill="#fff"/>
    <path id="Path_40" data-name="Path 40" d="M2447.021,256.327v2.06h-6.666V232.5h6.652v4.132a7.99,7.99,0,0,1,3.212-3.516,8.775,8.775,0,0,1,4.657-1.153v7.42c-.626,0-1.25-.048-1.864.009a6.229,6.229,0,0,0-5.138,2.99,6.332,6.332,0,0,0-.859,3.294C2447.009,249.211,2447.018,252.747,2447.021,256.327Z" transform="translate(-2226.322 -210.691)" fill="#fff"/>
    <path id="Path_41" data-name="Path 41" d="M192.321,216.66a1.691,1.691,0,0,1-.293.281q-5.034,2.92-10.071,5.836a.535.535,0,0,1-.625,0q-5.032-2.925-10.077-5.826a.511.511,0,0,1-.3-.512c.006-3.9,0-7.8.014-11.7a.6.6,0,0,1,.238-.442c3.443-2,6.994-4.028,10.474-5.979.03,3.966-.072,7.933-.067,11.86a1.325,1.325,0,0,0,.114.456c.128.065.223.126.322.183,1.026.587,2.054,1.17,3.078,1.76.857.494,1.709,1,2.564,1.492,1.024.595,2.044,1.2,3.075,1.779C191.277,216.135,191.8,216.39,192.321,216.66Z" transform="translate(-155.115 -180.015)" fill="#fff"/>
    <path id="Path_42" data-name="Path 42" d="M304.1,216.3a14.958,14.958,0,0,1-1.577-.507c-1.03-.584-2.229-1.257-3.253-1.852-.855-.5-1.613-1.064-2.469-1.558-1.024-.59-2.107-1.158-3.133-1.745-.1-.056-.242-.307-.369-.412-.029-4.124.158-8.211.159-12.288,1.473.842,2.972,1.693,4.442,2.539,1.975,1.137,3.945,2.283,5.923,3.415a.511.511,0,0,1,.3.509C304.117,208.339,304.111,212.32,304.1,216.3Z" transform="translate(-266.892 -179.65)" fill="#fff"/>
    <path id="Path_43" data-name="Path 43" d="M180.8,1.907c.059.155.082,5.793.084,8.471-2.512,1.5-5.111,2.962-7.626,4.418-1.041.6-2.083,1.2-3.194,1.844V16.2c0-2.576,0-5.152-.006-7.727a.6.6,0,0,1,.348-.616C173.82,5.9,177.354,3.885,180.8,1.907Z" transform="translate(-154.29 -0.759)" fill="#fff"/>
  </g>
</svg>
